# xmcd
# 
# Track frame offsets:
#     150
#     20497
#     40142
#     63242
# 
# Disc length: 1210
# 
# Revision: 1
# Processed by: cddbd v1.5.2PL0 Copyright (c) Steve Scherf et al.
# Submitted via: fre:ac v1.0.27
# 
DISCID=2a04b804
DTITLE=RICKY MARTIN - MARIA
DYEAR=1995
DGENRE=Latin pop
TTITLE0=MARIA (spanglish Radio Edit)
TTITLE1=MARIA (Original Album Version)
TTITLE2=MARIA (Perc A Pella Mix)
TTITLE3=MARIA (Spanglish Dub)
EXTD=Japan CD maxi-single\n1998.3.25\nEpic/Sony Records ESCA6966
EXTT0=
EXTT1=
EXTT2=
EXTT3=
PLAYORDER=
